<mxfile host="app.diagrams.net" modified="2024-02-26T08:50:28.693Z" agent="Mozilla/5.0 (Windows NT 10.0; Win64; x64) AppleWebKit/537.36 (KHTML, like Gecko) Chrome/122.0.0.0 Safari/537.36" etag="HBkqMhRwn62V1OWCpflr" version="23.1.6" type="device">
  <diagram name="PÃ¡gina-1" id="egUZRdwTFk42koYCjHkl">
    <mxGraphModel dx="1434" dy="746" grid="1" gridSize="10" guides="1" tooltips="1" connect="1" arrows="1" fold="1" page="1" pageScale="1" pageWidth="827" pageHeight="1169" math="0" shadow="0">
      <root>
        <mxCell id="0" />
        <mxCell id="1" parent="0" />
        <mxCell id="C2ZByTe-yOmxxByXFdeq-1" value="CPU" style="rounded=1;whiteSpace=wrap;html=1;" vertex="1" parent="1">
          <mxGeometry x="150" y="160" width="240" height="220" as="geometry" />
        </mxCell>
        <mxCell id="C2ZByTe-yOmxxByXFdeq-2" value="PIC" style="rounded=1;whiteSpace=wrap;html=1;" vertex="1" parent="1">
          <mxGeometry x="430" y="160" width="140" height="130" as="geometry" />
        </mxCell>
        <mxCell id="C2ZByTe-yOmxxByXFdeq-7" style="edgeStyle=orthogonalEdgeStyle;rounded=0;orthogonalLoop=1;jettySize=auto;html=1;strokeWidth=4;" edge="1" parent="1" source="C2ZByTe-yOmxxByXFdeq-4" target="C2ZByTe-yOmxxByXFdeq-2">
          <mxGeometry relative="1" as="geometry" />
        </mxCell>
        <mxCell id="C2ZByTe-yOmxxByXFdeq-4" value="Dispositivo 3" style="points=[[0.13,0.24,0],[0.5,0.2,0],[0.62,0,0],[0.87,0.24,0],[0.95,0.55,0],[0.96,0.95,0],[0.5,1,0],[0.04,0.95,0],[0.05,0.55,0]];verticalLabelPosition=bottom;sketch=0;html=1;verticalAlign=top;aspect=fixed;align=center;pointerEvents=1;shape=mxgraph.cisco19.joystick_keyboard;fillColor=#005073;strokeColor=none;" vertex="1" parent="1">
          <mxGeometry x="650" y="120" width="162" height="90" as="geometry" />
        </mxCell>
        <mxCell id="C2ZByTe-yOmxxByXFdeq-6" style="edgeStyle=orthogonalEdgeStyle;rounded=0;orthogonalLoop=1;jettySize=auto;html=1;entryX=1;entryY=0.75;entryDx=0;entryDy=0;" edge="1" parent="1" source="C2ZByTe-yOmxxByXFdeq-5" target="C2ZByTe-yOmxxByXFdeq-2">
          <mxGeometry relative="1" as="geometry" />
        </mxCell>
        <mxCell id="C2ZByTe-yOmxxByXFdeq-5" value="Dispositivo 4" style="sketch=0;pointerEvents=1;shadow=0;dashed=0;html=1;strokeColor=none;fillColor=#434445;aspect=fixed;labelPosition=center;verticalLabelPosition=bottom;verticalAlign=top;align=center;outlineConnect=0;shape=mxgraph.vvd.mouse;" vertex="1" parent="1">
          <mxGeometry x="700" y="280" width="34.3" height="70" as="geometry" />
        </mxCell>
        <mxCell id="C2ZByTe-yOmxxByXFdeq-8" value="" style="rounded=1;whiteSpace=wrap;html=1;" vertex="1" parent="1">
          <mxGeometry x="140" y="470" width="687" height="240" as="geometry" />
        </mxCell>
        <mxCell id="C2ZByTe-yOmxxByXFdeq-9" value="ISR 3" style="rounded=0;whiteSpace=wrap;html=1;fillColor=#d5e8d4;strokeColor=#82b366;" vertex="1" parent="1">
          <mxGeometry x="460" y="490" width="120" height="200" as="geometry" />
        </mxCell>
        <mxCell id="C2ZByTe-yOmxxByXFdeq-11" value="" style="endArrow=none;html=1;rounded=0;exitX=0;exitY=0.25;exitDx=0;exitDy=0;entryX=1;entryY=0.25;entryDx=0;entryDy=0;" edge="1" parent="1" source="C2ZByTe-yOmxxByXFdeq-9" target="C2ZByTe-yOmxxByXFdeq-9">
          <mxGeometry width="50" height="50" relative="1" as="geometry">
            <mxPoint x="720" y="410" as="sourcePoint" />
            <mxPoint x="770" y="360" as="targetPoint" />
          </mxGeometry>
        </mxCell>
        <mxCell id="C2ZByTe-yOmxxByXFdeq-12" value="" style="endArrow=none;html=1;rounded=0;exitX=0;exitY=0.25;exitDx=0;exitDy=0;entryX=1;entryY=0.25;entryDx=0;entryDy=0;" edge="1" parent="1">
          <mxGeometry width="50" height="50" relative="1" as="geometry">
            <mxPoint x="460" y="570" as="sourcePoint" />
            <mxPoint x="580" y="570" as="targetPoint" />
          </mxGeometry>
        </mxCell>
        <mxCell id="C2ZByTe-yOmxxByXFdeq-13" value="" style="endArrow=none;html=1;rounded=0;exitX=0;exitY=0.25;exitDx=0;exitDy=0;entryX=1;entryY=0.25;entryDx=0;entryDy=0;" edge="1" parent="1">
          <mxGeometry width="50" height="50" relative="1" as="geometry">
            <mxPoint x="460" y="620" as="sourcePoint" />
            <mxPoint x="580" y="620" as="targetPoint" />
          </mxGeometry>
        </mxCell>
        <mxCell id="C2ZByTe-yOmxxByXFdeq-14" value="" style="endArrow=none;html=1;rounded=0;exitX=0;exitY=0.25;exitDx=0;exitDy=0;entryX=1;entryY=0.25;entryDx=0;entryDy=0;" edge="1" parent="1">
          <mxGeometry width="50" height="50" relative="1" as="geometry">
            <mxPoint x="460" y="660" as="sourcePoint" />
            <mxPoint x="580" y="660" as="targetPoint" />
          </mxGeometry>
        </mxCell>
        <mxCell id="C2ZByTe-yOmxxByXFdeq-15" value="ISR 4" style="rounded=0;whiteSpace=wrap;html=1;fillColor=#f8cecc;strokeColor=#b85450;" vertex="1" parent="1">
          <mxGeometry x="650" y="490" width="120" height="200" as="geometry" />
        </mxCell>
        <mxCell id="C2ZByTe-yOmxxByXFdeq-17" value="" style="endArrow=none;html=1;rounded=0;exitX=0;exitY=0.25;exitDx=0;exitDy=0;entryX=1;entryY=0.25;entryDx=0;entryDy=0;fillColor=#f8cecc;strokeColor=#b85450;" edge="1" parent="1">
          <mxGeometry width="50" height="50" relative="1" as="geometry">
            <mxPoint x="650" y="570" as="sourcePoint" />
            <mxPoint x="770" y="570" as="targetPoint" />
          </mxGeometry>
        </mxCell>
        <mxCell id="C2ZByTe-yOmxxByXFdeq-18" value="" style="endArrow=none;html=1;rounded=0;exitX=0;exitY=0.25;exitDx=0;exitDy=0;entryX=1;entryY=0.25;entryDx=0;entryDy=0;fillColor=#f8cecc;strokeColor=#b85450;" edge="1" parent="1">
          <mxGeometry width="50" height="50" relative="1" as="geometry">
            <mxPoint x="650" y="620" as="sourcePoint" />
            <mxPoint x="770" y="620" as="targetPoint" />
          </mxGeometry>
        </mxCell>
        <mxCell id="C2ZByTe-yOmxxByXFdeq-19" value="" style="endArrow=none;html=1;rounded=0;exitX=0;exitY=0.25;exitDx=0;exitDy=0;entryX=1;entryY=0.25;entryDx=0;entryDy=0;fillColor=#f8cecc;strokeColor=#b85450;" edge="1" parent="1">
          <mxGeometry width="50" height="50" relative="1" as="geometry">
            <mxPoint x="650" y="660" as="sourcePoint" />
            <mxPoint x="770" y="660" as="targetPoint" />
          </mxGeometry>
        </mxCell>
        <mxCell id="C2ZByTe-yOmxxByXFdeq-20" value="" style="endArrow=none;html=1;rounded=0;exitX=0;exitY=0.25;exitDx=0;exitDy=0;entryX=1;entryY=0.25;entryDx=0;entryDy=0;fillColor=#f8cecc;strokeColor=#b85450;" edge="1" parent="1">
          <mxGeometry width="50" height="50" relative="1" as="geometry">
            <mxPoint x="650" y="540" as="sourcePoint" />
            <mxPoint x="770" y="540" as="targetPoint" />
          </mxGeometry>
        </mxCell>
        <mxCell id="C2ZByTe-yOmxxByXFdeq-21" value="" style="rounded=0;whiteSpace=wrap;html=1;" vertex="1" parent="1">
          <mxGeometry x="210" y="490" width="160" height="210" as="geometry" />
        </mxCell>
        <mxCell id="C2ZByTe-yOmxxByXFdeq-22" value="IDT" style="text;html=1;align=center;verticalAlign=middle;whiteSpace=wrap;rounded=0;" vertex="1" parent="1">
          <mxGeometry x="200" y="490" width="60" height="30" as="geometry" />
        </mxCell>
        <mxCell id="C2ZByTe-yOmxxByXFdeq-23" value="" style="endArrow=none;html=1;rounded=0;exitX=0;exitY=0.25;exitDx=0;exitDy=0;entryX=1;entryY=0.25;entryDx=0;entryDy=0;" edge="1" parent="1" source="C2ZByTe-yOmxxByXFdeq-21" target="C2ZByTe-yOmxxByXFdeq-21">
          <mxGeometry width="50" height="50" relative="1" as="geometry">
            <mxPoint x="290" y="540" as="sourcePoint" />
            <mxPoint x="340" y="490" as="targetPoint" />
          </mxGeometry>
        </mxCell>
        <mxCell id="C2ZByTe-yOmxxByXFdeq-24" value="" style="endArrow=none;html=1;rounded=0;exitX=0;exitY=0.25;exitDx=0;exitDy=0;entryX=1;entryY=0.25;entryDx=0;entryDy=0;" edge="1" parent="1">
          <mxGeometry width="50" height="50" relative="1" as="geometry">
            <mxPoint x="210" y="570" as="sourcePoint" />
            <mxPoint x="370" y="570" as="targetPoint" />
          </mxGeometry>
        </mxCell>
        <mxCell id="C2ZByTe-yOmxxByXFdeq-25" value="" style="endArrow=none;html=1;rounded=0;exitX=0;exitY=0.25;exitDx=0;exitDy=0;entryX=1;entryY=0.25;entryDx=0;entryDy=0;" edge="1" parent="1">
          <mxGeometry width="50" height="50" relative="1" as="geometry">
            <mxPoint x="210" y="600" as="sourcePoint" />
            <mxPoint x="370" y="600" as="targetPoint" />
          </mxGeometry>
        </mxCell>
        <mxCell id="C2ZByTe-yOmxxByXFdeq-26" value="" style="endArrow=none;html=1;rounded=0;exitX=0;exitY=0.25;exitDx=0;exitDy=0;entryX=1;entryY=0.25;entryDx=0;entryDy=0;" edge="1" parent="1">
          <mxGeometry width="50" height="50" relative="1" as="geometry">
            <mxPoint x="210" y="630" as="sourcePoint" />
            <mxPoint x="370" y="630" as="targetPoint" />
          </mxGeometry>
        </mxCell>
        <mxCell id="C2ZByTe-yOmxxByXFdeq-27" value="" style="endArrow=none;html=1;rounded=0;exitX=0;exitY=0.25;exitDx=0;exitDy=0;entryX=1;entryY=0.25;entryDx=0;entryDy=0;" edge="1" parent="1">
          <mxGeometry width="50" height="50" relative="1" as="geometry">
            <mxPoint x="210" y="660" as="sourcePoint" />
            <mxPoint x="370" y="660" as="targetPoint" />
          </mxGeometry>
        </mxCell>
        <mxCell id="C2ZByTe-yOmxxByXFdeq-28" value="IDT ENTRY 0" style="text;html=1;align=center;verticalAlign=middle;whiteSpace=wrap;rounded=0;" vertex="1" parent="1">
          <mxGeometry x="240" y="540" width="110" height="30" as="geometry" />
        </mxCell>
        <mxCell id="C2ZByTe-yOmxxByXFdeq-30" value="IDT ENTRY 1" style="text;html=1;align=center;verticalAlign=middle;whiteSpace=wrap;rounded=0;" vertex="1" parent="1">
          <mxGeometry x="240" y="570" width="110" height="30" as="geometry" />
        </mxCell>
        <mxCell id="C2ZByTe-yOmxxByXFdeq-31" value="IDT ENTRY 2" style="text;html=1;align=center;verticalAlign=middle;whiteSpace=wrap;rounded=0;" vertex="1" parent="1">
          <mxGeometry x="240" y="600" width="110" height="30" as="geometry" />
        </mxCell>
        <mxCell id="C2ZByTe-yOmxxByXFdeq-33" value="IDT ENTRY 3" style="text;html=1;align=center;verticalAlign=middle;whiteSpace=wrap;rounded=0;" vertex="1" parent="1">
          <mxGeometry x="240" y="630" width="110" height="30" as="geometry" />
        </mxCell>
        <mxCell id="C2ZByTe-yOmxxByXFdeq-34" value="IDT ENTRY 4" style="text;html=1;align=center;verticalAlign=middle;whiteSpace=wrap;rounded=0;" vertex="1" parent="1">
          <mxGeometry x="240" y="660" width="110" height="30" as="geometry" />
        </mxCell>
        <mxCell id="C2ZByTe-yOmxxByXFdeq-37" style="edgeStyle=orthogonalEdgeStyle;rounded=0;orthogonalLoop=1;jettySize=auto;html=1;entryX=-0.033;entryY=0.055;entryDx=0;entryDy=0;entryPerimeter=0;" edge="1" parent="1" source="C2ZByTe-yOmxxByXFdeq-33" target="C2ZByTe-yOmxxByXFdeq-9">
          <mxGeometry relative="1" as="geometry" />
        </mxCell>
        <mxCell id="C2ZByTe-yOmxxByXFdeq-38" style="edgeStyle=orthogonalEdgeStyle;rounded=0;orthogonalLoop=1;jettySize=auto;html=1;entryX=0.017;entryY=0.105;entryDx=0;entryDy=0;entryPerimeter=0;" edge="1" parent="1" source="C2ZByTe-yOmxxByXFdeq-34" target="C2ZByTe-yOmxxByXFdeq-15">
          <mxGeometry relative="1" as="geometry">
            <Array as="points">
              <mxPoint x="420" y="675" />
              <mxPoint x="420" y="480" />
              <mxPoint x="652" y="480" />
            </Array>
          </mxGeometry>
        </mxCell>
        <mxCell id="C2ZByTe-yOmxxByXFdeq-39" value="3" style="edgeStyle=orthogonalEdgeStyle;rounded=0;orthogonalLoop=1;jettySize=auto;html=1;entryX=1.008;entryY=0.295;entryDx=0;entryDy=0;entryPerimeter=0;strokeWidth=3;" edge="1" parent="1" source="C2ZByTe-yOmxxByXFdeq-2" target="C2ZByTe-yOmxxByXFdeq-1">
          <mxGeometry relative="1" as="geometry" />
        </mxCell>
        <mxCell id="C2ZByTe-yOmxxByXFdeq-42" style="edgeStyle=orthogonalEdgeStyle;rounded=0;orthogonalLoop=1;jettySize=auto;html=1;entryX=0.5;entryY=0;entryDx=0;entryDy=0;" edge="1" parent="1" source="C2ZByTe-yOmxxByXFdeq-40" target="C2ZByTe-yOmxxByXFdeq-21">
          <mxGeometry relative="1" as="geometry" />
        </mxCell>
        <mxCell id="C2ZByTe-yOmxxByXFdeq-40" value="IDTR" style="rounded=0;whiteSpace=wrap;html=1;" vertex="1" parent="1">
          <mxGeometry x="230" y="330" width="120" height="20" as="geometry" />
        </mxCell>
        <mxCell id="C2ZByTe-yOmxxByXFdeq-45" style="edgeStyle=orthogonalEdgeStyle;rounded=0;orthogonalLoop=1;jettySize=auto;html=1;entryX=0.5;entryY=0;entryDx=0;entryDy=0;" edge="1" parent="1" source="C2ZByTe-yOmxxByXFdeq-47" target="C2ZByTe-yOmxxByXFdeq-40">
          <mxGeometry relative="1" as="geometry">
            <Array as="points">
              <mxPoint x="290" y="310" />
            </Array>
          </mxGeometry>
        </mxCell>
        <mxCell id="C2ZByTe-yOmxxByXFdeq-44" value="lidt&amp;nbsp;" style="text;html=1;align=center;verticalAlign=middle;whiteSpace=wrap;rounded=0;fontSize=18;" vertex="1" parent="1">
          <mxGeometry x="170" y="290" width="60" height="30" as="geometry" />
        </mxCell>
        <mxCell id="C2ZByTe-yOmxxByXFdeq-47" value="" style="shape=image;html=1;verticalAlign=top;verticalLabelPosition=bottom;labelBackgroundColor=#ffffff;imageAspect=0;aspect=fixed;image=https://cdn1.iconfinder.com/data/icons/material-core/20/translate-128.png" vertex="1" parent="1">
          <mxGeometry x="160" y="286" width="34" height="34" as="geometry" />
        </mxCell>
      </root>
    </mxGraphModel>
  </diagram>
</mxfile>
